<mxfile host="app.diagrams.net" modified="2021-01-13T12:20:17.291Z" agent="5.0 (Windows NT 10.0; Win64; x64) AppleWebKit/537.36 (KHTML, like Gecko) Chrome/87.0.4280.88 Safari/537.36" etag="n2icNRG6Q0x3RorXF7ze" version="14.1.1" type="github">
  <diagram id="SqLYLVBiRkudAWccuw8X" name="Page-1">
    <mxGraphModel dx="715" dy="437" grid="1" gridSize="10" guides="1" tooltips="1" connect="1" arrows="1" fold="1" page="1" pageScale="1" pageWidth="827" pageHeight="1169" math="0" shadow="0">
      <root>
        <mxCell id="0" />
        <mxCell id="1" parent="0" />
        <mxCell id="AATG1SM6u2Bzhdoub2gd-1" value="corn" style="swimlane;fontStyle=1;align=center;verticalAlign=top;childLayout=stackLayout;horizontal=1;startSize=26;horizontalStack=0;resizeParent=1;resizeParentMax=0;resizeLast=0;collapsible=1;marginBottom=0;" vertex="1" parent="1">
          <mxGeometry x="180" y="130" width="270" height="340" as="geometry" />
        </mxCell>
        <mxCell id="AATG1SM6u2Bzhdoub2gd-2" value="+ dateType: DateType&#xa;+ weekDay: Array&lt;Number&gt;&#xa;+ monthDay: Array&lt;Number&gt;&#xa;+ monthWeek: Array&lt;Number&gt;&#xa;+ time: Second" style="text;strokeColor=none;fillColor=none;align=left;verticalAlign=top;spacingLeft=4;spacingRight=4;overflow=hidden;rotatable=0;points=[[0,0.5],[1,0.5]];portConstraint=eastwest;" vertex="1" parent="AATG1SM6u2Bzhdoub2gd-1">
          <mxGeometry y="26" width="270" height="144" as="geometry" />
        </mxCell>
        <mxCell id="AATG1SM6u2Bzhdoub2gd-3" value="" style="line;strokeWidth=1;fillColor=none;align=left;verticalAlign=middle;spacingTop=-1;spacingLeft=3;spacingRight=3;rotatable=0;labelPosition=right;points=[];portConstraint=eastwest;" vertex="1" parent="AATG1SM6u2Bzhdoub2gd-1">
          <mxGeometry y="170" width="270" height="8" as="geometry" />
        </mxCell>
        <mxCell id="AATG1SM6u2Bzhdoub2gd-4" value="+ getWeekDayData(): WeekDay&#xa;+ getMonthDayData(): MonthDay&#xa;+ getMonthWeekData(): MonthWeek&#xa;&#xa;+ setWeekDayData({weekDay, time}): type&#xa;+ setMonthDayData({monthDay, time}): type&#xa;+ setMonthWeekData({monthWeek, time}): type&#xa;&#xa;+ getData()&#xa;&#xa;+ resetDate(): void" style="text;strokeColor=none;fillColor=none;align=left;verticalAlign=top;spacingLeft=4;spacingRight=4;overflow=hidden;rotatable=0;points=[[0,0.5],[1,0.5]];portConstraint=eastwest;" vertex="1" parent="AATG1SM6u2Bzhdoub2gd-1">
          <mxGeometry y="178" width="270" height="162" as="geometry" />
        </mxCell>
        <mxCell id="AATG1SM6u2Bzhdoub2gd-5" value="类的抽象数据类型是一个周期选择对象：&lt;br&gt;按周： 可以选择每周几或者每周哪几天的某个时间&lt;br&gt;按月： 可以选择每月第几天或者每月哪几天的某个时间&lt;br&gt;//按年： 可以选择每年第几个月或者每年哪几个月 可以使用monthType" style="text;html=1;align=left;verticalAlign=middle;resizable=0;points=[];autosize=1;" vertex="1" parent="1">
          <mxGeometry x="10" y="40" width="390" height="60" as="geometry" />
        </mxCell>
        <mxCell id="AATG1SM6u2Bzhdoub2gd-10" style="edgeStyle=orthogonalEdgeStyle;rounded=0;orthogonalLoop=1;jettySize=auto;html=1;entryX=1.002;entryY=0.102;entryDx=0;entryDy=0;entryPerimeter=0;" edge="1" parent="1" source="AATG1SM6u2Bzhdoub2gd-6" target="AATG1SM6u2Bzhdoub2gd-2">
          <mxGeometry relative="1" as="geometry" />
        </mxCell>
        <mxCell id="AATG1SM6u2Bzhdoub2gd-6" value="&lt;p style=&quot;margin: 0px ; margin-top: 4px ; text-align: center ; text-decoration: underline&quot;&gt;&lt;b&gt;DateType:Number&lt;/b&gt;&lt;/p&gt;&lt;hr&gt;&lt;p style=&quot;margin: 0px ; margin-left: 8px&quot;&gt;WEEK_DAY=1&lt;/p&gt;&lt;p style=&quot;margin: 0px ; margin-left: 8px&quot;&gt;MONTH_DAY= 2&lt;/p&gt;&lt;p style=&quot;margin: 0px ; margin-left: 8px&quot;&gt;MONTH_WEEK= 2&lt;br&gt;&lt;/p&gt;" style="verticalAlign=top;align=left;overflow=fill;fontSize=12;fontFamily=Helvetica;html=1;" vertex="1" parent="1">
          <mxGeometry x="460" y="35" width="160" height="90" as="geometry" />
        </mxCell>
        <mxCell id="AATG1SM6u2Bzhdoub2gd-11" style="edgeStyle=orthogonalEdgeStyle;rounded=0;orthogonalLoop=1;jettySize=auto;html=1;entryX=1;entryY=0.5;entryDx=0;entryDy=0;" edge="1" parent="1" source="AATG1SM6u2Bzhdoub2gd-8" target="AATG1SM6u2Bzhdoub2gd-2">
          <mxGeometry relative="1" as="geometry" />
        </mxCell>
        <mxCell id="AATG1SM6u2Bzhdoub2gd-8" value="&lt;p style=&quot;margin: 0px ; margin-top: 4px ; text-align: center ; text-decoration: underline&quot;&gt;&lt;b&gt;Second: Number&lt;/b&gt;&lt;br&gt;&lt;/p&gt;&lt;hr&gt;&lt;p style=&quot;margin: 0px ; margin-left: 8px&quot;&gt;从0点到现在的秒数&lt;/p&gt;" style="verticalAlign=top;align=left;overflow=fill;fontSize=12;fontFamily=Helvetica;html=1;" vertex="1" parent="1">
          <mxGeometry x="550" y="223" width="160" height="90" as="geometry" />
        </mxCell>
      </root>
    </mxGraphModel>
  </diagram>
</mxfile>
